#!OML:ASF H:\Not Pregnant\Project 1\Capture day 1\Session 1\non-pregnant.ASF
:FULLY-SPECIFIED
:DEGREES
1710
root -5.53908 15.6527 30.6537 188.371 -12.0675 -534.388
lowerback -0.191028 4.40323 9.43369
upperback -6.58963 5.8306 0.436371
thorax -5.92708 2.21304 -5.00825
lowerneck 28.4491 -8.2591 -30.1438
upperneck -14.4272 -21.9285 43.7826
head 0.543405 -15.2257 24.0028
rclavicle 3.45388e-015 -8.15017e-015
rhumerus -32.4077 3.38866 -92.2624
rradius 29.6915
rwrist 21.0852
rhand -9.17257 1.28458
rfingers 7.12502
rthumb 16.7803 -28.0103
lclavicle 3.45388e-015 -8.15017e-015
lhumerus -45.3249 -2.2512 82.1937
lradius 35.0051
lwrist 38.3521
lhand -16.2074 -12.2153
lfingers 7.12502
lthumb 10.0001 17.5271
rfemur -1.23601 4.88787 31.888
rtibia 22.6959
rfoot -11.2626 28.09
rtoes 6.05572
lfemur -44.6055 0.870101 -14.4333
ltibia 25.6951
lfoot -11.7787 -11.7318
ltoes -20.3681
1711
root -5.5971 15.656 30.5305 188.383 -11.6743 -534.306
lowerback -0.379142 4.42195 9.54974
upperback -6.65978 5.82585 0.492838
thorax -5.89126 2.19777 -4.99871
lowerneck 28.3827 -8.17371 -30.2516
upperneck -14.1472 -21.8778 43.6264
head 0.588734 -15.1682 23.911
rclavicle 1.34888e-013 7.99114e-014
rhumerus -32.8893 3.12962 -92.0901
rradius 29.398
rwrist 21.1816
rhand -9.17061 1.24486
rfingers 7.12502
rthumb 16.7822 -28.0498
lclavicle 1.34888e-013 7.99114e-014
lhumerus -45.5233 -2.18557 82.2159
lradius 34.8136
lwrist 38.2706
lhand -16.1784 -12.3484
lfingers 7.12502
lthumb 10.0281 17.3926
rfemur -0.769391 4.93871 31.7655
rtibia 22.6388
rfoot -10.2593 28.5441
rtoes 6.31071
lfemur -44.4628 0.581111 -14.3189
ltibia 26.3838
lfoot -11.1871 -11.892
ltoes -19.2988
1712
root -5.65437 15.6629 30.4054 188.396 -11.3225 -534.26
lowerback -0.573629 4.42412 9.6282
upperback -6.72554 5.79676 0.542002
thorax -5.85309 2.17293 -4.97537
lowerneck 28.3088 -8.09008 -30.3589
upperneck -13.8664 -21.8304 43.4755
head 0.638285 -15.1137 23.8211
rclavicle 2.75814e-014 1.15295e-014
rhumerus -33.3562 2.82743 -91.8812
rradius 29.0728
rwrist 21.2754
rhand -9.08668 1.18983
rfingers 7.12502
rthumb 16.863 -28.098
lclavicle 2.75814e-014 1.15295e-014
lhumerus -45.7047 -2.11041 82.2455
lradius 34.6075
lwrist 38.1869
lhand -16.1698 -12.4388
lfingers 7.12502
lthumb 10.0363 17.3019
rfemur -0.299664 4.98338 31.6142
rtibia 22.5734
rfoot -9.1803 28.9517
rtoes 6.53648
lfemur -44.3605 0.243697 -14.2241
ltibia 27.0968
lfoot -10.4003 -12.0711
ltoes -18.1166
1713
root -5.71049 15.6717 30.2792 188.414 -11.0015 -534.261
lowerback -0.763024 4.41038 9.65339
upperback -6.78493 5.74604 0.581716
thorax -5.81759 2.14083 -4.93305
lowerneck 28.1929 -8.02182 -30.4771
upperneck -13.5653 -21.8047 43.3271
head 0.713214 -15.0679 23.7181
rclavicle 3.9583e-014 -7.55382e-015
rhumerus -33.8018 2.47961 -91.632
rradius 28.7171
rwrist 21.3929
rhand -9.00642 1.13909
rfingers 7.12502
rthumb 16.9403 -28.1421
lclavicle 3.9583e-014 -7.55382e-015
lhumerus -45.862 -2.03067 82.2911
lradius 34.4024
lwrist 38.1376
lhand -16.2222 -12.4548
lfingers 7.12502
lthumb 9.98576 17.2883
rfemur 0.127945 5.03329 31.4234
rtibia 22.5767
rfoot -8.07984 29.3066
rtoes 6.70505
lfemur -44.2716 -0.149278 -14.1455
ltibia 27.7946
lfoot -9.44409 -12.1657
ltoes -17.0194
1714
root -5.76505 15.6798 30.1521 188.428 -10.7206 -534.334
lowerback -0.934841 4.37729 9.60135
upperback -6.84038 5.67108 0.602745
thorax -5.79573 2.10101 -4.8696
lowerneck 28.078 -7.95272 -30.5834
upperneck -13.2645 -21.7754 43.1823
head 0.785051 -15.0223 23.6179
rclavicle 6.50771e-014 3.37934e-014
rhumerus -34.2428 2.06318 -91.3389
rradius 28.332
rwrist 21.5759
rhand -8.87854 1.05014
rfingers 7.12502
rthumb 17.0633 -28.2205
lclavicle 6.50771e-014 3.37934e-014
lhumerus -45.999 -1.95261 82.3437
lradius 34.1884
lwrist 38.0936
lhand -16.3133 -12.3876
lfingers 7.12502
lthumb 9.8979 17.3597
rfemur 0.484579 5.07378 31.1733
rtibia 22.7302
rfoot -7.0121 29.6074
rtoes 6.82508
lfemur -44.1525 -0.599125 -14.1081
ltibia 28.4436
lfoot -8.37688 -12.1629
ltoes -16.0993
1715
root -5.81749 15.6862 30.0248 188.449 -10.4783 -534.498
lowerback -1.09662 4.32336 9.44437
upperback -6.88896 5.56907 0.602873
thorax -5.78194 2.05426 -4.77144
lowerneck 27.9516 -7.88912 -30.681
upperneck -12.97 -21.7455 43.0397
head 0.856367 -14.9765 23.5163
rclavicle 1.07008e-013 9.0447e-014
rhumerus -34.6684 1.58468 -90.9963
rradius 27.9073
rwrist 21.8442
rhand -8.83135 0.937236
rfingers 7.12502
rthumb 17.1088 -28.3295
lclavicle 1.07008e-013 9.0447e-014
lhumerus -46.1047 -1.86455 82.398
lradius 33.9567
lwrist 38.0444
lhand -16.4207 -12.2403
lfingers 7.12502
lthumb 9.79429 17.512
rfemur 0.728386 5.09873 30.8439
rtibia 23.097
rfoot -5.98464 29.8549
rtoes 6.97727
lfemur -43.9815 -1.0927 -14.1366
ltibia 29.028
lfoot -7.27512 -12.1152
ltoes -15.1875
1716
root -5.86765 15.69 29.8969 188.469 -10.2737 -534.768
lowerback -1.24825 4.24789 9.16425
upperback -6.93001 5.43946 0.578652
thorax -5.77616 2.00145 -4.63211
lowerneck 27.8145 -7.83318 -30.7718
upperneck -12.6768 -21.72 42.897
head 0.930401 -14.9327 23.4098
rclavicle 3.44146e-014 7.55382e-015
rhumerus -35.0915 1.03576 -90.5972
rradius 27.4474
rwrist 22.2148
rhand -8.83345 0.823477
rfingers 7.12502
rthumb 17.1067 -28.4434
lclavicle 3.44146e-014 7.55382e-015
lhumerus -46.1965 -1.77635 82.4525
lradius 33.7091
lwrist 37.9858
lhand -16.5301 -12.0445
lfingers 7.12502
lthumb 9.68875 17.7126
rfemur 0.861877 5.09286 30.4194
rtibia 23.699
rfoot -5.02753 30.0624
rtoes 7.10834
lfemur -43.7414 -1.59797 -14.2679
ltibia 29.5469
lfoot -6.21748 -12.0824
ltoes -14.171
